<svg width="122" height="24" viewBox="0 0 122 24" fill="none" xmlns="http://www.w3.org/2000/svg">
<g clip-path="url(#clip0_1_38)">
<path d="M25.5289 6.11224V16.885C25.5196 18.769 24.756 20.5732 23.404 21.9055C22.052 23.2378 20.2209 23.9906 18.3087 24.0001C16.0559 24.0001 14.2121 23.1503 12.7774 21.4507C11.3265 23.1513 9.47405 24.0011 7.22017 24.0001C5.30797 23.9906 3.47686 23.2378 2.12485 21.9055C0.772851 20.5732 0.00923877 18.769 0 16.885V6.11224H3.37929V16.885C3.38131 17.888 3.78662 18.8494 4.50649 19.5586C5.22636 20.2678 6.20213 20.6672 7.22017 20.6692C7.72336 20.6775 8.2231 20.5858 8.6895 20.3995C9.15589 20.2132 9.57937 19.9362 9.93461 19.585C10.2983 19.2376 10.5877 18.8221 10.7856 18.3627C10.9835 17.9034 11.086 17.4096 11.087 16.9106V6.11224H14.4678V16.9106C14.4602 17.4085 14.5561 17.9028 14.7499 18.3627C14.9436 18.8227 15.231 19.2387 15.5943 19.585C15.9495 19.9362 16.373 20.2132 16.8394 20.3995C17.3058 20.5858 17.8055 20.6775 18.3087 20.6692C19.327 20.668 20.3032 20.2689 21.0233 19.5595C21.7433 18.8501 22.1484 17.8882 22.1496 16.885V6.11224H25.5289Z" fill="white"/>
<path d="M38.2453 16.7254C38.6077 17.8506 39.3146 18.8379 40.2689 19.5518C41.2483 20.2823 42.4458 20.6726 43.6742 20.6616C44.7195 20.6529 45.7505 20.4207 46.6958 19.981C47.7555 19.5092 48.5324 18.9118 49.0266 18.189L51.8175 20.0563C51.0105 21.2338 49.8428 22.184 48.3144 22.9068C46.8733 23.612 45.2877 23.9833 43.6788 23.9925C42.4823 24.0109 41.2947 23.7875 40.1894 23.3361C39.084 22.8847 38.0842 22.2148 37.2518 21.3679C35.4758 19.6201 34.5883 17.5179 34.5894 15.0614C34.5914 12.6883 35.5492 10.413 37.2526 8.73507C38.9559 7.05716 41.2655 6.11384 43.6742 6.11224C46.1675 6.11224 48.3017 6.98663 50.0766 8.73541C50.9362 9.55457 51.6166 10.5384 52.0758 11.6263C52.535 12.7143 52.7633 13.8833 52.7467 15.0614C52.7474 15.6115 52.6962 16.1605 52.5939 16.7013L38.2453 16.7254ZM43.6742 9.43562C42.4457 9.42401 41.248 9.81433 40.2689 10.5454C39.3096 11.2649 38.6022 12.2614 38.2453 13.396H49.0786C48.7223 12.2615 48.0153 11.265 47.0565 10.5454C46.085 9.81653 44.8953 9.42617 43.6742 9.43562V9.43562Z" fill="white"/>
<path d="M61.5641 23.9925V15.0614C61.5452 13.8825 61.7717 12.7123 62.2296 11.623C62.6875 10.5337 63.3672 9.54839 64.2265 8.72788C66.0025 6.98412 68.1367 6.11224 70.629 6.11224C73.0401 6.11224 75.3524 7.05589 77.0573 8.7356C78.7621 10.4153 79.7199 12.6935 79.7199 15.069V24.0001H76.3391V15.0614C76.3391 13.5726 75.7388 12.1447 74.6702 11.0919C73.6017 10.0391 72.1524 9.44767 70.6412 9.44767C69.1301 9.44767 67.6808 10.0391 66.6122 11.0919C65.5437 12.1447 64.9434 13.5726 64.9434 15.0614V23.9925H61.5641Z" fill="white"/>
<path d="M88.5432 0H91.9225V3.22851H88.5432V0ZM88.5432 6.10467H91.9225V23.9925H88.5432V6.10467Z" fill="white"/>
<path d="M122 6.11224L114.318 22.3271C113.809 23.4364 112.929 23.9915 111.68 23.9925C110.431 23.9935 109.543 23.4384 109.018 22.3271L101.336 6.11224H105.074L111.246 19.1302C111.284 19.2127 111.345 19.2828 111.422 19.3319C111.499 19.381 111.589 19.4072 111.681 19.4072C111.773 19.4072 111.863 19.381 111.94 19.3319C112.017 19.2828 112.078 19.2127 112.116 19.1302L118.287 6.11224H122Z" fill="white"/>
</g>
<defs>
<clipPath id="clip0_1_38">
<rect width="122" height="24" fill="white"/>
</clipPath>
</defs>
</svg>
